<svg width="180" height="38" viewBox="0 0 180 38" fill="none" xmlns="http://www.w3.org/2000/svg">
<path fill-rule="evenodd" clip-rule="evenodd" d="M59.7912 0.966553C63.3415 0.966553 66.6882 2.0814 69.4244 3.98593C72.1605 5.89045 74.354 8.58467 75.6656 11.7434C76.5475 13.857 77.0224 16.2028 77.0224 18.6415C77.0224 22.288 75.9369 25.7022 74.0827 28.5358C72.2284 31.3693 69.6053 33.599 66.5073 34.9461C64.4269 35.8287 62.1656 36.3397 59.7912 36.3397C56.241 36.3397 52.8942 35.2248 50.158 33.3203C47.3993 31.4158 45.2284 28.7216 43.9168 25.5396C43.0349 23.426 42.5601 21.1035 42.5601 18.6647C42.5601 15.0183 43.6455 11.5808 45.4998 8.77047C47.354 5.96013 49.9771 3.70722 53.0751 2.36011C55.1555 1.4543 57.4168 0.966553 59.7912 0.966553ZM65.9193 28.0248C67.6605 26.817 69.0626 25.0751 69.8992 23.0544C70.4646 21.7073 70.7585 20.2441 70.7811 18.7111C70.7811 16.3653 70.0801 14.2053 68.9043 12.3937C67.7284 10.5821 66.0324 9.16528 64.0651 8.30592C62.7535 7.7485 61.3289 7.42334 59.7912 7.42334C57.5073 7.42334 55.4043 8.12011 53.6404 9.35109C51.8992 10.5588 50.4972 12.2776 49.6605 14.2982C49.0952 15.6453 48.8012 17.1086 48.8012 18.6879C48.8012 21.0337 49.5023 23.1705 50.6781 24.9822C51.8766 26.7706 53.55 28.2106 55.5173 29.0699C56.8289 29.6506 58.2761 29.9525 59.7912 29.9525C62.0751 29.9525 64.1555 29.2325 65.9193 28.0248Z" fill="white"/>
<path d="M59.7912 13.2065C56.8515 13.2065 54.4772 15.6453 54.4772 18.6646C54.4772 21.684 56.8515 24.1227 59.7912 24.1227C62.7309 24.1227 65.1053 21.684 65.1053 18.6646C65.1053 15.6453 62.7309 13.2065 59.7912 13.2065Z" fill="white"/>
<path d="M10.0181 36.0109L0.390015 1.28784H6.69906L12.7316 25.977L18.6614 1.28784H23.5458L29.4427 25.977L35.5307 1.28784H41.8398L32.1563 36.0109H26.91L21.0759 13.1331L15.3095 36.0109H10.0181Z" fill="white"/>
<path fill-rule="evenodd" clip-rule="evenodd" d="M80.9875 1.25244V35.952H86.9698V23.1081H87.1734L95.9925 35.952H103.568L94.0704 23.1081C96.7839 22.8758 98.9774 21.6913 100.673 19.6474C102.347 17.5571 103.206 15.0951 103.206 12.2615C103.206 8.84733 102.098 6.17634 99.9045 4.20214C97.7111 2.22793 94.5678 1.25244 90.4975 1.25244H80.9875ZM86.9699 17.7661V7.45381V7.40735H90.6784C92.6005 7.40735 94.1156 7.84865 95.2236 8.68478C96.3317 9.54414 96.9196 10.8448 96.9422 12.5867C96.9422 14.3751 96.3769 15.6758 95.2462 16.5119C94.1156 17.3481 92.6005 17.7661 90.6784 17.7661H86.9699Z" fill="white"/>
<path d="M107.554 35.9894V1.28979H114.038V16.3402L124.53 1.28979H131.879L119.193 18.3609L131.857 35.9894H124.53L114.038 20.7996V35.9894H107.554Z" fill="white"/>
<path d="M135.306 35.9843V31.0483L140.125 31.0483V35.9843H135.306Z" fill="white"/>
<path d="M158.925 17.4707V35.9818H154.945V34.2631H154.877C154.289 35.0063 153.611 35.5637 152.819 35.9818C152.028 36.3766 151.168 36.5857 150.196 36.5857C147.754 36.5857 145.922 35.8192 144.701 34.2631C143.48 32.7069 142.892 30.454 142.915 27.5043V17.4707H147.256V26.9004C147.234 28.8282 147.528 30.2217 148.138 31.1043C148.749 31.9869 149.676 32.405 150.942 32.405C152.163 32.4282 153.09 31.9869 153.701 31.1043C154.312 30.2217 154.606 28.8282 154.606 26.9004V17.4707H158.925Z" fill="white"/>
<path fill-rule="evenodd" clip-rule="evenodd" d="M180 35.9816V17.4705H176.02V20.0951H175.952C175.296 19.0499 174.46 18.2602 173.465 17.7028C172.47 17.1686 171.339 16.8899 170.073 16.8899C167.563 16.8899 165.437 17.8422 163.719 19.7467C162 21.6512 161.141 24.0435 161.141 26.9235C161.141 29.8035 162 32.1493 163.741 33.9377C165.46 35.7261 167.54 36.6087 169.937 36.6087C171.09 36.5855 172.176 36.3068 173.239 35.819C174.301 35.3313 175.183 34.5416 175.952 33.4964H176.02V35.9816H180ZM166.952 22.6965C167.925 21.6049 169.191 21.0475 170.751 21.0475C172.289 21.0475 173.533 21.5817 174.505 22.6501C175.455 23.7184 175.93 25.0655 175.93 26.6681C175.93 28.3869 175.455 29.7572 174.505 30.8024C173.555 31.8475 172.311 32.3817 170.774 32.3817C169.191 32.3817 167.902 31.8475 166.93 30.8256C165.935 29.8036 165.46 28.4798 165.482 26.8772C165.482 25.2049 165.98 23.8113 166.952 22.6965Z" fill="white"/>
</svg>
