<svg width="400" height="81" viewBox="0 0 400 81" fill="none" xmlns="http://www.w3.org/2000/svg">
<path fill-rule="evenodd" clip-rule="evenodd" d="M132.869 2.09009C140.759 2.09009 148.196 4.501 154.276 8.61964C160.357 12.7383 165.231 18.5647 168.146 25.3956C170.106 29.9663 171.161 35.0392 171.161 40.3131C171.161 48.1988 168.749 55.5822 164.628 61.7099C160.508 67.8377 154.678 72.6595 147.794 75.5727C143.171 77.4813 138.146 78.5863 132.869 78.5863C124.98 78.5863 117.543 76.1754 111.462 72.0567C105.332 67.9381 100.508 62.1117 97.5931 55.2306C95.6333 50.6599 94.578 45.6372 94.578 40.3633C94.578 32.4776 96.9901 25.044 101.111 18.9665C105.231 12.889 111.06 8.01691 117.945 5.10373C122.568 3.14486 127.593 2.09009 132.869 2.09009ZM146.488 60.6047C150.357 57.9929 153.472 54.2259 155.332 49.8561C156.588 46.9429 157.241 43.7786 157.292 40.4636C157.292 35.3906 155.734 30.7195 153.121 26.8017C150.508 22.884 146.739 19.8201 142.367 17.9617C139.452 16.7563 136.287 16.0531 132.869 16.0531C127.794 16.0531 123.121 17.5599 119.201 20.222C115.332 22.8338 112.216 26.5506 110.357 30.9204C109.101 33.8336 108.447 36.9979 108.447 40.4133C108.447 45.4863 110.005 50.1072 112.618 54.0249C115.281 57.8924 119 61.0065 123.372 62.865C126.287 64.1206 129.503 64.7736 132.869 64.7736C137.945 64.7736 142.568 63.2165 146.488 60.6047Z" fill="#00A1F1"/>
<path d="M132.869 28.5601C126.337 28.5601 121.06 33.8339 121.06 40.3635C121.06 46.893 126.337 52.1669 132.869 52.1669C139.402 52.1669 144.679 46.893 144.679 40.3635C144.679 33.8339 139.402 28.5601 132.869 28.5601Z" fill="#E42469"/>
<path d="M22.2624 77.8754L0.86676 2.78491H14.8869L28.2926 56.1766L41.4698 2.78491H52.324L65.4283 56.1766L78.9572 2.78491H92.9773L71.4584 77.8754H59.8001L46.8353 28.4009L34.0212 77.8754H22.2624Z" fill="#00A1F1"/>
<path fill-rule="evenodd" clip-rule="evenodd" d="M179.972 2.70825V77.7479H193.266V49.9722H193.719L213.317 77.7479H230.151L209.045 49.9722C215.075 49.4699 219.95 46.9083 223.719 42.4883C227.437 37.9678 229.347 32.6437 229.347 26.516C229.347 19.1326 226.884 13.3564 222.01 9.08712C217.136 4.8178 210.151 2.70825 201.105 2.70825H179.972ZM193.266 38.4198V16.1189V16.0184H201.508C205.779 16.0184 209.146 16.9727 211.608 18.7809C214.07 20.6393 215.377 23.4521 215.427 27.2191C215.427 31.0866 214.171 33.8994 211.658 35.7075C209.146 37.5157 205.779 38.4198 201.508 38.4198H193.266Z" fill="#00A1F1"/>
<path d="M239.009 77.8289V2.78931H253.417V35.3366L276.734 2.78931H293.065L264.874 39.7064L293.015 77.8289H276.734L253.417 44.9803V77.8289H239.009Z" fill="#00A1F1"/>
<path d="M300.68 77.8178V67.1436L311.389 67.1436V77.8178H300.68Z" fill="#00A1F1"/>
<path d="M353.166 37.7812V77.8124H344.322V74.0956H344.171C342.864 75.7029 341.357 76.9083 339.598 77.8124C337.839 78.6663 335.93 79.1183 333.769 79.1183C328.342 79.1183 324.271 77.4608 321.558 74.0956C318.844 70.7304 317.538 65.8583 317.588 59.4794V37.7812H327.236V58.1735C327.186 62.3424 327.839 65.356 329.196 67.2647C330.553 69.1733 332.613 70.0774 335.427 70.0774C338.141 70.1276 340.201 69.1733 341.558 67.2647C342.915 65.356 343.568 62.3424 343.568 58.1735V37.7812H353.166Z" fill="#00A1F1"/>
<path fill-rule="evenodd" clip-rule="evenodd" d="M400 77.8122V37.7811H391.156V43.4568H391.005C389.548 41.1965 387.688 39.4888 385.477 38.2833C383.266 37.1281 380.754 36.5254 377.94 36.5254C372.362 36.5254 367.638 38.5847 363.819 42.7034C360 46.822 358.09 51.9954 358.09 58.2236C358.09 64.4518 360 69.5247 363.869 73.3922C367.688 77.2597 372.312 79.1684 377.638 79.1684C380.201 79.1182 382.613 78.5154 384.975 77.4607C387.337 76.4059 389.296 74.6982 391.005 72.4379H391.156V77.8122H400ZM371.005 49.0824C373.166 46.7217 375.98 45.5162 379.447 45.5162C382.864 45.5162 385.628 46.6714 387.789 48.9819C389.899 51.2924 390.955 54.2055 390.955 57.6712C390.955 61.388 389.899 64.3515 387.789 66.6117C385.678 68.8719 382.915 70.0271 379.497 70.0271C375.98 70.0271 373.116 68.8719 370.955 66.6619C368.744 64.4519 367.688 61.589 367.739 58.1233C367.739 54.5069 368.844 51.4933 371.005 49.0824Z" fill="#00A1F1"/>
</svg>
