<svg width="180" height="63" viewBox="0 0 180 63" fill="none" xmlns="http://www.w3.org/2000/svg">
<path d="M69.4209 2.94401C66.6731 1.08524 63.3366 0 59.7807 0C57.4139 0 55.128 0.484895 53.073 1.35078C49.9789 2.66692 47.3466 4.84895 45.4878 7.59669C43.6291 10.3444 42.5438 13.681 42.5438 17.2369C42.5438 19.6036 43.0287 21.878 43.9061 23.9446C45.2107 27.0387 47.4043 29.671 50.1405 31.5297C52.8883 33.3885 56.2248 34.4737 59.7807 34.4737C62.1474 34.4737 64.4218 33.9888 66.4884 33.123C69.5825 31.8184 72.2148 29.6248 74.062 26.8886C75.9208 24.1408 77.006 20.8043 77.006 17.2484C77.006 14.8817 76.5211 12.5957 75.6437 10.5292C74.3506 7.42351 72.1686 4.80277 69.4209 2.94401ZM69.9058 21.5086C69.0745 23.4712 67.6776 25.1568 65.9227 26.346C64.1678 27.5351 62.0666 28.2163 59.7807 28.2163C58.2567 28.2163 56.8136 27.9046 55.509 27.3504C53.5463 26.5191 51.8607 25.1222 50.6716 23.3673C49.4824 21.6125 48.8013 19.5113 48.8013 17.2253C48.8013 15.7014 49.113 14.2582 49.6672 12.9421C50.4984 10.9794 51.8954 9.29382 53.6502 8.10467C55.4051 6.91553 57.5063 6.22282 59.7922 6.22282C61.3162 6.22282 62.7478 6.53454 64.0639 7.07716C66.0381 7.90841 67.7122 9.30537 68.9013 11.0602C70.0905 12.8151 70.7716 14.9163 70.7716 17.2022C70.7716 18.7608 70.4599 20.1924 69.9058 21.5086Z" fill="#00A1F1"/>
<path d="M59.7807 11.926C56.8483 11.926 54.47 14.3043 54.47 17.2368C54.47 20.1692 56.8483 22.5475 59.7807 22.5475C62.7132 22.5475 65.0915 20.1692 65.0915 17.2368C65.0915 14.3043 62.7132 11.926 59.7807 11.926Z" fill="#E42469"/>
<path d="M9.72106 34.1852L0.0693359 0.381104H6.37297L12.4226 24.0371L18.3453 0.381104H23.2404L29.163 24.0371L35.2127 0.381104H41.5163L31.8646 34.1852H26.6116L20.7928 11.5221L15.0203 34.1852H9.72106Z" fill="#00A1F1"/>
<path d="M80.689 34.1852V0.381104H90.4677C94.5547 0.381104 97.6834 1.33935 99.8885 3.25584C102.082 5.17233 103.179 7.78153 103.179 11.095C103.179 13.8658 102.336 16.2556 100.639 18.276C98.9418 20.2964 96.7482 21.4279 94.0351 21.6703L103.548 34.1737H95.9747L87.1427 21.6703H86.9349V34.1737H80.689V34.1852ZM86.9349 6.4192V16.4635H90.6409C92.5574 16.4635 94.0929 16.0594 95.2127 15.2512C96.3442 14.4431 96.9099 13.1731 96.9099 11.4413C96.8752 9.73265 96.3095 8.47423 95.1896 7.64299C94.0813 6.82328 92.5574 6.40766 90.6409 6.40766H86.9349V6.4192Z" fill="#00A1F1"/>
<path d="M107.739 34.1852V0.381104H113.997V15.0434L124.503 0.381104H131.857L119.169 17.0061L131.834 34.1852H124.503L113.997 19.3844V34.1852H107.739Z" fill="#00A1F1"/>
<path d="M140.343 29.8442H136.002V34.1852H140.343V29.8442Z" fill="#00A1F1"/>
<path d="M158.907 16.1631V34.185H154.924V32.5225H154.855C154.266 33.2383 153.585 33.804 152.788 34.1966C151.992 34.5891 151.126 34.7854 150.167 34.7854C147.72 34.7854 145.884 34.0349 144.672 32.5225C143.46 31.0101 142.859 28.8165 142.882 25.9303V16.1631H147.223V25.353C147.2 27.2233 147.489 28.5856 148.101 29.44C148.713 30.2943 149.636 30.7215 150.895 30.6984C152.13 30.7215 153.042 30.3059 153.654 29.44C154.266 28.5856 154.566 27.2233 154.566 25.353V16.1631H158.907Z" fill="#00A1F1"/>
<path d="M180 16.1631V34.185H176.017V31.749H175.948C175.186 32.765 174.285 33.527 173.235 34.0118C172.184 34.4967 171.087 34.7623 169.933 34.7738C167.531 34.7738 165.453 33.9079 163.733 32.1646C162.001 30.4329 161.135 28.1469 161.135 25.3299C161.135 22.5245 162.001 20.1923 163.721 18.3451C165.442 16.4864 167.566 15.5627 170.071 15.5627C171.33 15.5627 172.461 15.8283 173.466 16.3594C174.47 16.8904 175.301 17.664 175.948 18.6915H176.017V16.1631H180ZM170.752 19.6497C169.194 19.6497 167.924 20.1923 166.943 21.266C165.961 22.3513 165.465 23.7021 165.465 25.3299C165.442 26.9001 165.927 28.1816 166.908 29.186C167.889 30.1904 169.171 30.6869 170.752 30.6869C172.288 30.6869 173.535 30.1789 174.482 29.1514C175.428 28.1238 175.913 26.7846 175.913 25.1336C175.913 23.5635 175.44 22.2589 174.482 21.2199C173.523 20.1692 172.288 19.6497 170.752 19.6497Z" fill="#00A1F1"/>
<path d="M4.56032 62.6785V49.875H0V48.2817H10.9332V49.875H6.34982V62.6785H4.56032Z" fill="#E42469"/>
<path d="M13.5309 62.6786V48.2703H15.3204V59.5268L23.6098 48.2703H25.4455V62.6786H23.6675V51.1912L15.2627 62.6786H13.5309Z" fill="#E42469"/>
<path d="M34.6354 60.5659L35.6975 59.4229C36.5634 60.5428 38.249 61.3509 40.0154 61.3509C42.2782 61.3509 43.6406 60.3119 43.6406 58.6494C43.6406 56.8599 42.1051 56.0979 39.9 56.0979H36.9675V54.4931H39.9C41.828 54.4931 43.3981 53.7773 43.3981 52.1148C43.3981 50.5216 41.8395 49.6557 39.9461 49.6557C38.3067 49.6557 36.9444 50.2561 35.8592 51.4106L34.8663 50.2907C35.9515 49.0323 37.7872 48.0625 40.0731 48.0625C42.9017 48.0625 45.2338 49.471 45.2338 51.907C45.2338 53.9851 43.4674 55.0127 42.1282 55.2551C43.4443 55.359 45.4532 56.4904 45.4532 58.7995C45.4532 61.2008 43.2942 62.9442 40.05 62.9442C37.5332 62.9442 35.5474 61.8589 34.6354 60.5659Z" fill="#E42469"/>
<path d="M60.9236 62.6786V50.8217L56.017 62.6786H55.2781L50.3945 50.8217V62.6786H48.605V48.2703H51.1795L55.6475 59.1111L60.1386 48.2703H62.7131V62.6786H60.9236Z" fill="#E42469"/>
<path d="M65.7264 55.4859C65.7264 51.2258 68.6012 48.0393 72.8729 48.0393C77.133 48.0393 80.0193 51.2373 80.0193 55.4859C80.0193 59.7461 77.1215 62.9325 72.8729 62.9325C68.6012 62.9441 65.7264 59.7461 65.7264 55.4859ZM78.1721 55.4859C78.1721 52.1147 76.094 49.6325 72.8844 49.6325C69.6402 49.6325 67.5967 52.1147 67.5967 55.4859C67.5967 58.834 69.6518 61.3393 72.8844 61.3393C76.094 61.3393 78.1721 58.834 78.1721 55.4859Z" fill="#E42469"/>
<path d="M80.5042 62.6786L87.0271 55.1165L81.0237 48.2703H83.275L89.0591 55.0473V48.2703H90.8486V55.0473L96.6558 48.2703H98.9071L92.8805 55.1165L99.4266 62.6786H97.1753L91.7145 56.2018L90.8486 57.1946V62.6786H89.0591V57.1946L88.1932 56.2018L82.7324 62.6786H80.5042Z" fill="#E42469"/>
<path d="M101.909 62.6786V48.2703H111.353V49.8635H103.71V54.5046H111.203V56.0979H103.71V61.0623H111.353V62.6555H101.909V62.6786Z" fill="#E42469"/>
<path d="M131.695 48.2703V62.6786H114.378V48.2703H116.167V61.0738H122.147V48.2703H123.937V61.0738H129.894V48.2703H131.695Z" fill="#E42469"/>
<path d="M141.936 62.6786V48.2703H148.355C150.86 48.2703 152.396 49.7827 152.396 51.9416C152.396 53.7542 151.183 54.9664 149.867 55.2435C151.403 55.486 152.673 57.0561 152.673 58.7879C152.673 61.0969 151.137 62.6786 148.505 62.6786H141.936ZM150.525 52.2072C150.525 50.9141 149.659 49.875 148.043 49.875H143.725V54.5162H148.043C149.671 54.5162 150.525 53.5233 150.525 52.2072ZM150.814 58.6031C150.814 57.287 149.902 56.1209 148.136 56.1209H143.725V61.0854H148.136C149.821 61.0854 150.814 60.1271 150.814 58.6031Z" fill="#E42469"/>
<path d="M155.051 55.4859C155.051 51.0526 158.318 48.0393 162.463 48.0393C165.014 48.0393 166.781 49.2746 167.924 50.891L166.411 51.7337C165.592 50.5215 164.102 49.6441 162.463 49.6441C159.311 49.6441 156.91 52.0686 156.91 55.4975C156.91 58.9148 159.311 61.3508 162.463 61.3508C164.102 61.3508 165.592 60.485 166.411 59.2612L167.947 60.104C166.735 61.7434 165.014 62.9556 162.463 62.9556C158.318 62.9441 155.051 59.9192 155.051 55.4859Z" fill="#E42469"/>
<path d="M170.521 62.6786V48.2703H179.965V49.8635H172.323V54.5046H179.815V56.0979H172.323V61.0623H179.965V62.6555H170.521V62.6786Z" fill="#E42469"/>
</svg>
