<svg width="701" height="53" viewBox="0 0 701 53" fill="none" xmlns="http://www.w3.org/2000/svg">
<path d="M14.12 51.1801V12.1501H0V0.830078H41.14V12.1501H27.1V51.1801H14.12Z" fill="#E42469"/>
<path d="M51.8701 51.1801V0.830078H64.8601V30.5001L85.2301 0.830078H98.6701V51.1801H85.6101V20.0801L64.4001 51.1801H51.8701Z" fill="#E42469"/>
<path d="M132.8 44.1601L139.37 35.3301C142.99 38.8801 149.56 40.6101 153.94 40.6101C159.9 40.6101 163.15 38.5001 163.15 35.7001C163.15 32.8301 160.66 31.4701 153.41 31.4701H143.14V20.0701H153.41C158.77 20.0701 162.32 18.7901 162.32 16.1401C162.32 12.9701 158.32 11.5301 153.11 11.5301C148.5 11.5301 143.29 13.1901 139.75 16.3601L133.48 8.21006C137.71 3.45006 145.18 0.0600586 154.47 0.0600586C167.3 0.0600586 175.31 5.57006 175.31 13.8701C175.31 19.7601 170.25 24.2101 164.29 25.1901C169.65 25.7201 176.14 29.8701 176.14 37.1201C176.14 45.9501 167.01 52.0701 154.4 52.0701C144.8 52.0901 136.72 48.6901 132.8 44.1601Z" fill="#E42469"/>
<path d="M231.93 51.1801V18.4201L219.17 51.1801H213.43L200.75 18.4201V51.1801H187.76V0.830078H205.8L216.29 28.1601L226.86 0.830078H244.9V51.1801H231.93Z" fill="#E42469"/>
<path d="M255.94 26.04C255.94 10.72 267.49 0 282.89 0C298.29 0 309.77 10.72 309.77 26.04C309.77 41.37 298.29 52.09 282.89 52.09C267.49 52.09 255.94 41.37 255.94 26.04ZM296.55 26.04C296.55 17.81 291.19 11.47 282.89 11.47C274.51 11.47 269.15 17.81 269.15 26.04C269.15 34.19 274.51 40.61 282.89 40.61C291.19 40.62 296.55 34.2 296.55 26.04Z" fill="#E42469"/>
<path d="M313.39 51.1801L334 24.3801L314.45 0.830078H330.38L344.27 19.4001V0.830078H357.25V19.3301L371.07 0.830078H387L367.52 24.3801L388.13 51.1801H372.2L358.91 32.2301L357.25 34.3401V51.1801H344.27V34.5001L342.53 32.2401L329.24 51.1901H313.39V51.1801Z" fill="#E42469"/>
<path d="M396.44 51.1801V0.830078H433.36V12.1501H409.43V20.0001H432.83V31.3201H409.43V39.8501H433.36V51.1701H396.44V51.1801Z" fill="#E42469"/>
<path d="M513.15 0.830078V51.1801H445.43V0.830078H458.41V39.8601H472.83V0.830078H485.81V39.8601H500.15V0.830078H513.15Z" fill="#E42469"/>
<path d="M550.6 51.1801V0.830078H579.14C589.11 0.830078 593.86 7.32008 593.86 13.6601C593.86 19.9301 590.01 24.1501 585.25 25.2101C590.61 26.0401 594.84 31.1701 594.84 37.5201C594.84 44.8401 589.93 51.1801 580.04 51.1801H550.6ZM580.65 15.9301C580.65 13.5101 578.84 11.7801 576.2 11.7801H563.59V20.1601H576.2C578.84 20.1601 580.65 18.4201 580.65 15.9301ZM581.63 35.7101C581.63 33.2201 579.82 31.1801 576.65 31.1801H563.59V40.2401H576.65C579.74 40.2401 581.63 38.4301 581.63 35.7101Z" fill="#E42469"/>
<path d="M603.9 26.04C603.9 10.49 615.68 0 631.16 0C643.31 0 649.81 6.87 653.13 13.51L641.96 18.79C640.3 14.79 636 11.47 631.17 11.47C622.94 11.47 617.13 17.81 617.13 26.04C617.13 34.27 622.94 40.61 631.17 40.61C636 40.61 640.3 37.29 641.96 33.29L653.13 38.57C649.88 45.06 643.32 52.08 631.16 52.08C615.68 52.09 603.9 41.52 603.9 26.04Z" fill="#E42469"/>
<path d="M663.24 51.1801V0.830078H700.16V12.1501H676.23V20.0001H699.63V31.3201H676.23V39.8501H700.16V51.1701H663.24V51.1801Z" fill="#E42469"/>
</svg>
