<svg width="150" height="150" viewBox="0 0 150 150" fill="none" xmlns="http://www.w3.org/2000/svg">
<path fill-rule="evenodd" clip-rule="evenodd" d="M75 0C90.4528 0 105.02 4.72216 116.929 12.7892C128.839 20.8562 138.386 32.2681 144.094 45.6475C147.933 54.6 150 64.5362 150 74.8659C150 90.3113 145.276 104.773 137.205 116.775C129.134 128.777 117.717 138.222 104.232 143.927C95.1772 147.666 85.3346 149.83 75 149.83C59.5472 149.83 44.9803 145.108 33.0709 137.041C21.063 128.974 11.6142 117.562 5.90551 104.084C2.06693 95.1318 0 85.294 0 74.9643C0 59.5189 4.72441 44.9589 12.7953 33.0551C20.8661 21.1513 32.2835 11.6086 45.7677 5.9027C54.8228 2.06594 64.6654 0 75 0ZM101.673 114.611C109.252 109.495 115.354 102.117 118.996 93.5579C121.457 87.8519 122.736 81.6541 122.835 75.1611C122.835 65.2249 119.784 56.0757 114.665 48.4022C109.547 40.7287 102.165 34.7276 93.6025 31.0876C87.8938 28.7266 81.693 27.3493 75.0001 27.3493C65.0592 27.3493 55.9056 30.3006 48.2285 35.5147C40.6497 40.6303 34.5474 47.9103 30.9056 56.4692C28.445 62.1752 27.1655 68.373 27.1655 75.0628C27.1655 84.999 30.2167 94.0498 35.3348 101.723C40.5513 109.298 47.8348 115.398 56.3978 119.038C62.1064 121.497 68.4056 122.776 75.0001 122.776C84.9411 122.776 93.9962 119.727 101.673 114.611Z" fill="#00A1F1"/>
<path d="M75.1333 51.8452C62.3381 51.8452 52.0034 62.1749 52.0034 74.9641C52.0034 87.7533 62.3381 98.083 75.1333 98.083C87.9286 98.083 98.2633 87.7533 98.2633 74.9641C98.2633 62.1749 87.9286 51.8452 75.1333 51.8452Z" fill="#E42469"/>
</svg>
